Coordinates
version=1
nRows=17
nColumns=40
inDegrees=yes

Units are S.I. units (second, meters, Newtons, ...)
Angles are in degrees.

endheader
time	pelvis_tilt	pelvis_list	pelvis_rotation	pelvis_tx	pelvis_ty	pelvis_tz	hip_flexion_r	hip_adduction_r	hip_rotation_r	knee_angle_r	knee_angle_r_beta	ankle_angle_r	subtalar_angle_r	mtp_angle_r	hip_flexion_l	hip_adduction_l	hip_rotation_l	knee_angle_l	knee_angle_l_beta	ankle_angle_l	subtalar_angle_l	mtp_angle_l	lumbar_extension	lumbar_bending	lumbar_rotation	arm_flex_r	arm_add_r	arm_rot_r	elbow_flex_r	pro_sup_r	wrist_flex_r	wrist_dev_r	arm_flex_l	arm_add_l	arm_rot_l	elbow_flex_l	pro_sup_l	wrist_flex_l	wrist_dev_l
     54.34000000	     -4.98660902	     -4.67088685	     -0.10804041	      1.05744563	      0.93240593	      0.44873133	     38.18214947	     -3.84951648	     -2.93747434	     72.26423570	     72.26423570	     -1.08049518	    -15.41638339	     -0.42687511	     16.56261777	     -4.64750296	     -7.26520389	     20.89327209	     20.89327209	     11.82059133	    -10.16962361	     -1.28636626	    -12.03275381	      6.98144937	      1.49934088	      1.70567360	    -12.64321556	     -7.29845361	     49.78321777	     45.01849869	      0.00000000	      0.00000000	     17.39551285	    -16.85463000	     10.40280877	     59.01770406	     46.09144613	      0.00000000	      0.00000000
     54.35200000	     -5.03984264	     -4.71525899	     -0.45103062	      1.05618180	      0.93313661	      0.44891698	     39.36596803	     -3.74482137	     -3.07583780	     70.85337520	     70.85337520	     -0.93941993	    -15.88510214	     -0.37495028	     15.70176092	     -4.68391126	     -7.47938564	     20.12276191	     20.12276191	     11.97988568	    -10.11311688	     -1.25830281	    -12.16105803	      7.07264532	      2.14163834	     -0.37709274	    -13.19909276	     -7.34356305	     47.25442968	     45.11182907	      0.00000000	      0.00000000	     19.11397295	    -16.92013958	     10.26889936	     60.99621460	     46.15268289	      0.00000000	      0.00000000
     54.36400000	     -5.06406649	     -4.72479872	     -0.76228756	      1.05495510	      0.93377610	      0.44914511	     40.37267651	     -3.69182195	     -3.26060300	     69.23579749	     69.23579749	     -0.86322226	    -16.21179818	     -0.56353961	     14.84114562	     -4.69594804	     -7.77824313	     19.37615921	     19.37615921	     11.85108455	    -10.09670209	     -1.93276793	    -12.25505188	      7.03676933	      1.78541016	     -0.18349710	    -12.95910493	     -8.37964560	     40.39108579	     45.45591466	      0.00000000	      0.00000000	     19.94430157	    -18.40644364	     11.26733239	     64.61353000	     46.19603938	      0.00000000	      0.00000000
     54.37600000	     -5.07153681	     -4.75066343	     -1.07120767	      1.05380169	      0.93441017	      0.44935049	     41.20098933	     -3.56861360	     -3.41968400	     67.36168718	     67.36168718	     -0.70520362	    -16.38183812	     -0.24328884	     13.94154404	     -4.71204961	     -8.05319570	     18.60842184	     18.60842184	     12.00184362	     -9.88309054	     -1.97611083	    -12.45380867	      7.09530551	      2.32396297	     -2.06734063	    -13.40994096	     -8.51456217	     38.08789416	     45.54802314	      0.00000000	      0.00000000	     21.58462096	    -18.42295686	     10.81335060	     66.58584166	     46.28391240	      0.00000000	      0.00000000
     54.38800000	     -5.13109538	     -4.74731702	     -1.32236032	      1.05270823	      0.93475994	      0.44958518	     41.94891802	     -3.50992799	     -3.63698573	     65.27227860	     65.27227860	     -0.47723597	    -16.23873762	      0.32598898	     13.15584675	     -4.71264077	     -8.40164929	     17.90434382	     17.90434382	     11.90125767	     -9.67043503	     -2.81187601	    -12.49850906	      7.10259868	      1.87424073	     -1.75858040	    -13.28496266	     -9.55368622	     31.80918577	     45.88999342	      0.00000000	      0.00000000	     22.32625289	    -19.72947211	     11.07980806	     69.96085864	     46.38442533	      0.00000000	      0.00000000
     54.40000000	     -5.28749414	     -4.74563654	     -1.48657135	      1.05156368	      0.93482716	      0.44980486	     42.61121559	     -3.46980530	     -3.91187425	     62.84266271	     62.84266271	     -0.38137767	    -16.00600415	      0.60202058	     12.63069693	     -4.70117161	     -8.57106017	     17.46423742	     17.46423742	     12.06698611	     -9.55898981	     -2.82749822	    -12.44514824	      7.20063263	      1.56310274	     -3.38949499	    -13.60612057	     -9.65511552	     30.86438578	     45.92525477	      0.00000000	      0.00000000	     23.77018754	    -20.39582410	     10.51848660	     70.81217055	     46.44989531	      0.00000000	      0.00000000
     54.41200000	     -5.20262634	     -4.82874214	     -1.70801258	      1.05088737	      0.93536377	      0.45011955	     42.71849335	     -3.28570498	     -4.19622546	     59.93289907	     59.93289907	     -0.33548868	    -15.48152819	      0.87728163	     11.49963688	     -4.74772581	     -8.84402023	     16.45520190	     16.45520190	     12.25391775	     -9.07100130	     -2.93854243	    -12.70510459	      7.31138916	      2.33519725	     -5.19666397	    -14.00984702	     -9.79535611	     28.82580333	     46.01307431	      0.00000000	      0.00000000	     25.21278942	    -20.02138728	     10.24280435	     73.29243808	     46.52945460	      0.00000000	      0.00000000
     54.42400000	     -5.24734023	     -4.71677067	     -1.86815906	      1.05017024	      0.93531735	      0.45040243	     42.81954494	     -3.30793507	     -4.40498892	     56.72614671	     56.72614671	     -0.54412682	    -14.86336818	      0.12974063	     10.67609434	     -4.60861642	     -9.20806215	     15.68553421	     15.68553421	     11.94861432	     -8.86635441	     -4.24302455	    -12.79624868	      7.22074078	      1.59667255	     -4.64921611	    -13.88098750	    -12.03765925	     23.46384786	     46.51032934	      0.00000000	      0.00000000	     25.33254768	    -21.23739459	      9.38237284	     77.16746550	     46.79097860	      0.00000000	      0.00000000
     54.43600000	     -5.32326430	     -4.66648071	     -1.93859766	      1.04959512	      0.93514177	      0.45069232	     42.70209712	     -3.32274031	     -4.76931695	     53.13921119	     53.13921119	     -0.44097568	    -13.76879285	      0.27184510	      9.95697060	     -4.53823652	     -9.46508357	     15.08137949	     15.08137949	     12.17253756	     -8.39529141	     -4.41480613	    -12.81001541	      7.21481332	      1.70159492	     -6.33900016	    -14.14357346	    -12.21529450	     22.66746563	     46.55389015	      0.00000000	      0.00000000	     26.60895762	    -21.48305799	      9.22839017	     78.84840512	     46.85092741	      0.00000000	      0.00000000
     54.44800000	     -5.42822212	     -4.56125443	     -1.97893646	      1.04918451	      0.93470732	      0.45105617	     42.37028606	     -3.37965914	     -5.17795248	     49.16848894	     49.16848894	     -0.53746661	    -12.51815614	     -0.13062235	      9.27241685	     -4.43449618	     -9.85018615	     14.49151447	     14.49151447	     12.33135578	     -7.71311582	     -4.96437063	    -12.79676612	      7.12665623	      1.64458401	     -7.96406003	    -14.34389656	    -12.58659972	     22.05037634	     46.62101177	      0.00000000	      0.00000000	     27.52396798	    -22.12537505	      9.43910154	     81.35961462	     46.92000625	      0.00000000	      0.00000000
     54.46000000	     -5.50608661	     -4.48955190	     -1.96077670	      1.04899660	      0.93417229	      0.45143187	     41.72289485	     -3.42038743	     -5.75403123	     44.84443492	     44.84443492	     -0.44869875	    -10.96790032	      0.02566153	      8.61402620	     -4.34222838	    -10.01799872	     14.02418793	     14.02418793	     12.57917742	     -7.34880616	     -5.22866426	    -12.72676320	      7.11688675	      1.59305149	     -9.52085653	    -14.56199244	    -12.70589763	     21.50340114	     46.64848701	      0.00000000	      0.00000000	     28.56623047	    -22.42732993	      9.20794871	     82.83017122	     46.97866273	      0.00000000	      0.00000000
     54.47200000	     -5.62154533	     -4.39658349	     -1.90382740	      1.04900428	      0.93341067	      0.45190819	     40.88027337	     -3.43013572	     -6.36003226	     40.27210578	     40.27210578	     -0.40613670	     -9.25947692	      0.36705235	      7.99496476	     -4.23359477	    -10.13851496	     13.56915701	     13.56915701	     12.84697798	     -6.94285837	     -5.53114309	    -12.59345559	      7.07302284	      1.45287692	    -11.08528176	    -14.73036870	    -12.80244467	     21.08300545	     46.66531279	      0.00000000	      0.00000000	     29.49074984	    -22.70174993	      9.07082579	     84.31814654	     47.02802225	      0.00000000	      0.00000000
     54.48400000	     -5.62133722	     -4.23605311	     -1.82923898	      1.04935945	      0.93258471	      0.45246078	     39.69910913	     -3.48575408	     -7.05848590	     35.59455521	     35.59455521	     -0.31975913	     -7.27009245	      0.80884604	      7.23599250	     -4.06064761	    -10.28827342	     13.13225843	     13.13225843	     13.14954444	     -6.45648139	     -5.92999654	    -12.57816171	      6.90389144	      1.39076743	    -12.70130741	    -14.85458026	    -12.90431572	     20.85175361	     46.67286762	      0.00000000	      0.00000000	     30.29132884	    -22.97517730	      9.03187876	     86.08146613	     47.07706130	      0.00000000	      0.00000000
     54.49600000	     -5.53909345	     -3.93036657	     -1.76883872	      1.05006875	      0.93158375	      0.45312487	     38.32245193	     -3.68215811	     -7.94937002	     31.09303688	     31.09303688	     -0.08143362	     -4.82236384	      1.43639697	      6.33810778	     -3.74653708	    -10.63326240	     12.64303624	     12.64303624	     13.37395974	     -5.76617653	     -6.59582204	    -12.68439816	      6.57675525	      1.33521504	    -14.49678585	    -14.87165797	    -13.06288555	     21.43975076	     46.64904893	      0.00000000	      0.00000000	     30.86391300	    -23.52930591	      9.18888750	     88.68586522	     47.14438285	      0.00000000	      0.00000000
     54.50800000	     -5.49964193	     -3.74628311	     -1.63346944	      1.05094938	      0.93037852	      0.45396784	     36.90911560	     -3.65513982	     -8.79432667	     26.89825934	     26.89825934	      0.50025576	     -2.81930276	      3.79441083	      5.61320966	     -3.57694974	    -10.66417115	     12.39996959	     12.39996959	     13.60205750	     -5.51876770	     -7.33320587	    -12.65913850	      6.40803163	      1.05486662	    -16.47715647	    -14.97557453	    -12.95397286	     23.12245116	     46.55840631	      0.00000000	      0.00000000	     31.29183737	    -24.07306375	      9.17480806	     90.58022743	     47.26264243	      0.00000000	      0.00000000
     54.52000000	     -5.41338849	     -3.47523560	     -1.57030536	      1.05218608	      0.92905830	      0.45503058	     35.45014722	     -3.67093846	     -9.72907319	     23.19675280	     23.19675280	      0.89829977	     -0.72841291	      5.32461232	      4.75995266	     -3.30479085	    -10.72422592	     12.08463545	     12.08463545	     14.01505465	     -5.26190254	     -7.54567740	    -12.60190480	      6.11328318	      1.15486380	    -17.95085755	    -14.90665789	    -12.83535141	     23.10896219	     46.53804914	      0.00000000	      0.00000000	     31.92769436	    -24.14838063	      9.19853459	     91.80228645	     47.31174864	      0.00000000	      0.00000000
     54.53200000	     -5.44985108	     -3.20243685	     -1.48883266	      1.05349891	      0.92741132	      0.45637371	     34.21078291	     -3.57692728	    -10.35046891	     20.15762526	     20.15762526	      1.06908618	      0.41011468	      6.36182058	      4.19016812	     -3.07487125	    -10.66981647	     12.06000739	     12.06000739	     14.48323041	     -5.23816603	     -7.74328918	    -12.32547862	      5.78817581	      1.03195204	    -19.08021835	    -14.80082617	    -12.82321667	     23.01566114	     46.53051549	      0.00000000	      0.00000000	     32.42449966	    -24.32872547	      9.12819338	     92.55327553	     47.33823640	      0.00000000	      0.00000000
